<svg width="181" height="124" viewBox="0 0 201 144" fill="none" xmlns="http://www.w3.org/2000/svg">
<g clip-path="url(#clip0_3_326)">
<!-- <path d="M71.4307 25.9907L196.354 97.3907C199.93 99.3887 201.192 104.015 199.088 107.591C198.458 108.642 197.616 109.589 196.46 110.22L147.773 140.084C141.359 143.974 133.262 144.079 126.742 140.294L4.44716 68.7887C0.871905 66.6856 -0.284796 62.1639 1.8183 58.5887C2.44922 57.5371 3.18536 56.6959 4.2369 56.0649L50.0843 26.5165C56.6039 22.4155 64.806 22.2052 71.4307 25.9907Z" fill="#FF3838" fill-opacity="0.6" class="status-indicator" /> -->
<path d="M62.9136 0.753609L169.33 62.9L134.103 83.0897L27.6868 20.9433L62.9136 0.753609Z" fill="url(#paint0_linear_3_326)" stroke="#9DCCE0" stroke-width="1.05155"/>
<path d="M134.313 83.4051L26.7403 20.8381V62.5845L134.419 125.046L134.313 83.4051Z" fill="#4593CA"/>
<path d="M134.103 83.4051L133.998 125.046L170.171 104.121L170.276 62.4794L134.103 83.4051Z" fill="#245F84"/>
<path d="M107.394 88.6629V91.502C107.394 91.8175 107.604 92.133 108.025 92.4484C108.445 92.7639 108.971 92.9742 109.497 93.2897L120.538 99.7041C121.064 100.02 121.59 100.23 122.115 100.23C122.641 100.23 123.167 100.02 123.693 99.7041L134.629 93.2897C135.365 92.8691 135.891 92.5536 136.206 92.3433C136.522 92.133 136.732 91.9227 136.837 91.6072V88.8732C136.837 89.0835 136.627 89.1886 136.206 89.399C135.891 89.6093 131.579 92.0278 123.483 96.7598C122.536 97.2855 121.485 97.2855 120.538 96.7598C112.441 92.0278 108.13 89.5041 107.814 89.2938C107.499 89.2938 107.394 89.0835 107.394 88.6629Z" fill="url(#paint1_linear_3_326)"/>
<path d="M123.377 80.8814L136.206 88.1371C136.732 88.4526 136.942 89.0835 136.627 89.6093C136.522 89.8196 136.417 89.9247 136.206 90.0299L123.377 97.2856C122.431 97.8113 121.379 97.8113 120.433 97.2856L107.92 90.0299C107.394 89.7144 107.289 89.0835 107.499 88.5577C107.604 88.3474 107.709 88.2423 107.92 88.1371L120.433 80.8814C121.379 80.3557 122.536 80.3557 123.377 80.8814Z" fill="url(#paint2_linear_3_326)"/>
<path d="M75.8474 69.735V72.5742C75.8474 72.8897 76.0577 73.2051 76.4783 73.5206C76.8989 73.8361 77.4247 74.0464 77.9505 74.3618L88.9917 80.7763C89.5175 81.0917 90.0433 81.302 90.5691 81.302C91.0948 81.302 91.6206 81.0917 92.1464 80.7763L103.082 74.3618C103.819 73.9412 104.344 73.6258 104.66 73.4154C104.975 73.2051 105.186 72.9948 105.291 72.6794V69.9453C105.291 70.1556 105.08 70.2608 104.66 70.4711C104.344 70.6814 100.033 73.1 91.9361 77.8319C90.9897 78.3577 89.9381 78.3577 88.9917 77.8319C80.8948 73.1 76.5835 70.5763 76.2681 70.366C75.9526 70.366 75.8474 70.1556 75.8474 69.735Z" fill="url(#paint3_linear_3_326)"/>
<path d="M91.8311 61.9536L104.66 69.2093C105.186 69.5247 105.396 70.1557 105.081 70.6814C104.975 70.8917 104.87 70.9969 104.66 71.102L91.8311 78.3577C90.8847 78.8835 89.8331 78.8835 88.8867 78.3577L76.3733 71.102C75.8475 70.7866 75.7423 70.1557 75.9526 69.6299C76.0578 69.4196 76.163 69.3144 76.3733 69.2093L88.8867 61.9536C89.8331 61.4278 90.9898 61.4278 91.8311 61.9536Z" fill="url(#paint4_linear_3_326)"/>
<path d="M44.301 51.8588V54.6979C44.301 55.0134 44.5113 55.3289 44.9319 55.6443C45.3525 55.9598 45.8783 56.1701 46.4041 56.4856L57.4454 62.9C57.9711 63.2155 58.4969 63.4258 59.0227 63.4258C59.5484 63.4258 60.0742 63.2155 60.6 62.9L71.5361 56.4856C72.2722 56.0649 72.798 55.7495 73.1134 55.5392C73.4289 55.3289 73.6392 55.1185 73.7443 54.8031V52.0691C73.7443 52.2794 73.534 52.3845 73.1134 52.5948C72.798 52.8051 68.4866 55.2237 60.3897 59.9557C59.4433 60.4814 58.3917 60.4814 57.4454 59.9557C49.3484 55.2237 45.0371 52.7 44.7217 52.4897C44.4062 52.4897 44.301 52.2794 44.301 51.8588Z" fill="url(#paint5_linear_3_326)"/>
<path d="M60.2847 44.0773L73.1135 51.333C73.6393 51.6484 73.8496 52.2794 73.5341 52.8052C73.429 53.0155 73.3238 53.1206 73.1135 53.2258L60.2847 60.4814C59.3383 61.0072 58.2867 61.0072 57.3403 60.4814L44.8269 53.2258C44.3011 52.9103 44.1959 52.2794 44.4062 51.7536C44.5114 51.5433 44.6166 51.4381 44.8269 51.333L57.3403 44.0773C58.2867 43.5515 59.4434 43.5515 60.2847 44.0773Z" fill="url(#paint6_linear_3_326)"/>
</g>
<defs>
<linearGradient id="paint0_linear_3_326" x1="98.5472" y1="15.6662" x2="98.5472" y2="117.16" gradientUnits="userSpaceOnUse">
<stop stop-color="#9ADAEE"/>
<stop offset="1" stop-color="#246085"/>
</linearGradient>
<linearGradient id="paint1_linear_3_326" x1="108.384" y1="94.3948" x2="135.932" y2="94.3948" gradientUnits="userSpaceOnUse">
<stop stop-color="#4C9ED9"/>
<stop offset="0.4988" stop-color="#3F8ABE"/>
<stop offset="0.5652" stop-color="#266288"/>
<stop offset="1" stop-color="#215B7F"/>
</linearGradient>
<linearGradient id="paint2_linear_3_326" x1="122.128" y1="88.9945" x2="122.128" y2="97.5769" gradientUnits="userSpaceOnUse">
<stop stop-color="#00395F"/>
<stop offset="1" stop-color="#005377"/>
</linearGradient>
<linearGradient id="paint3_linear_3_326" x1="76.8381" y1="75.4672" x2="104.385" y2="75.4672" gradientUnits="userSpaceOnUse">
<stop stop-color="#4C9ED9"/>
<stop offset="0.4988" stop-color="#3F8ABE"/>
<stop offset="0.5652" stop-color="#266288"/>
<stop offset="1" stop-color="#215B7F"/>
</linearGradient>
<linearGradient id="paint4_linear_3_326" x1="90.5816" y1="70.0657" x2="90.5816" y2="78.6481" gradientUnits="userSpaceOnUse">
<stop stop-color="#00395F"/>
<stop offset="1" stop-color="#005377"/>
</linearGradient>
<linearGradient id="paint5_linear_3_326" x1="45.2917" y1="57.5905" x2="72.8388" y2="57.5905" gradientUnits="userSpaceOnUse">
<stop stop-color="#4C9ED9"/>
<stop offset="0.4988" stop-color="#3F8ABE"/>
<stop offset="0.5652" stop-color="#266288"/>
<stop offset="1" stop-color="#215B7F"/>
</linearGradient>
<linearGradient id="paint6_linear_3_326" x1="59.035" y1="52.1897" x2="59.035" y2="60.7722" gradientUnits="userSpaceOnUse">
<stop stop-color="#00395F"/>
<stop offset="1" stop-color="#005377"/>
</linearGradient>
<clipPath id="clip0_3_326">
<rect width="201" height="144" fill="white"/>
</clipPath>
</defs>
</svg>